<svg xmlns="http://www.w3.org/2000/svg" viewBox="0 0 48 48" xmlns:xlink="http://www.w3.org/1999/xlink">
  <!-- Copyright © fordownloads, 2020 · OrangeFox Recovery -->
  <linearGradient id="lg_a" x1="24" x2="30" y1="32" y2="36" gradientUnits="userSpaceOnUse">
    <stop offset="0" stop-color="#e90600"/>
    <stop offset="1" stop-color="#ff931e"/>
  </linearGradient>
  <linearGradient id="lg_b" x1="20" x2="28" y1="20" y2="28" xlink:href="#lg_a"/>
  <linearGradient id="lg_c" x1="16" x2="36" y1="16" y2="36" xlink:href="#lg_a"/>
  <linearGradient id="lg_d" x1="12" x2="24" y1="20" y2="20" xlink:href="#lg_a"/>
  <linearGradient id="lg_e" x1="8" x2="54" y1="32" y2="32" xlink:href="#lg_a" gradientTransform="rotate(45 24 15)" />
  <path fill="url(#lg_a)" d="M28.12 38.33c-.08 0-.16 0-.24-.02-.76-.08-1.39-.6-1.63-1.33l-.05-.16c-.1-.28-.22-.6-.5-1.83a15.2 15.2 0 01-.31-2.05c-.04-.43-.11-1.31.6-1.87.39-.3.87-.4 1.43-.28.99.18 1.66.85 1.9 1.13 1.27 1.49 1.04 3.33.92 4.33-.06.49-.26.85-.44 1.14-.35.59-1 .94-1.68.94zm.33-2.08z"/>
  <path fill="url(#lg_b)" d="M27.38 27.5a8.78 8.78 0 01-3.2-.63c-1.37-.54-2.6-1.3-3.8-2.02-.3-.18-.52-.31-.76-.42-.62-.28-.86-.12-1.08.1-.19.18-.4.34-.68.5a1.16 1.16 0 01-1.17-2l.24-.16c.99-.96 2.28-1.16 3.63-.55.3.13.6.3.96.51 1.23.75 2.32 1.42 3.5 1.88 1 .39 1.94.53 2.87.45.13-.01.26-.04.4-.07-.1-.27-.2-.49-.31-.66a1.16 1.16 0 111.93-1.27c.27.41.5.9.68 1.5a1.95 1.95 0 01-1.25 2.52 4.9 4.9 0 01-1.96.32zm1-2.15h.01-.01z"/>
  <path fill="url(#lg_c)" d="M21.6 39.54a1.87 1.87 0 01-1.73-1.14 7.36 7.36 0 01-.66-2.45l-.02.42c-.02.53-.16 1.01-.27 1.4-.27.98-1.4 1.41-2.27 1.2a2.25 2.25 0 01-1.56-1.35 6.18 6.18 0 01-.45-1.46 19.22 19.22 0 01-.23-3.23 12 12 0 00-.43-3.46c-.12-.46-.27-.92-.41-1.38-.16-.5-.31-.99-.44-1.5a1.16 1.16 0 112.24-.58c.12.47.27.93.41 1.4l.44 1.48a14.12 14.12 0 01.5 4.01l.04 1.06c.03.65.08 1.18.14 1.65l.05-1.87.02-1c0-.13 0-.24.03-.34l.02-.13c.06-.42.15-.99.59-1.5.64-.78 1.35-.8 1.82-.68.7.17 1.2.68 1.37 1.38l.08.35c.11.44.22.88.3 1.33l.18 1.43c.06.46.12.93.2 1.4v-.05c.05-.65.08-1.3.1-1.95l.07-1.15c.05-.94.49-1.71 1.23-2.18 1-.62 2.15-.87 3.35-.73.5.06.95.2 1.41.33a5.85 5.85 0 013.39 2.58c.32.53.62 1.08.91 1.63l.48.88.05.1.24.43c-.44-1.28-.9-2.55-1.36-3.82l-.4-1.08-.91-2.5a2.5 2.5 0 01.86-2.87c.18-.13.35-.26.51-.4l.22-.2c.23-.19.45-.37.61-.56.34-.38.52-.8.58-1.33.08-.81.06-1.42-.06-1.96a5.7 5.7 0 00-.94-2.03 19.8 19.8 0 00-2.25-2.57 11.13 11.13 0 01-1.72-2.27 4.68 4.68 0 01-.62-3.33l.25-1.13.05-.23c-.33.2-.67.44-1.03.74a4.91 4.91 0 00-1.8 3.89c-.02.95.25 1.85.8 2.7.57.86 1.16 1.7 1.75 2.55l.65.92.64.9c.44.62.88 1.24 1.3 1.87a1.16 1.16 0 11-1.94 1.27c-.4-.6-.82-1.2-1.24-1.8l-.66-.91-.64-.92c-.6-.86-1.22-1.73-1.8-2.61a7.04 7.04 0 01-1.18-4 7.2 7.2 0 012.63-5.63 7.74 7.74 0 013.45-1.77c.72-.11 1.13.2 1.33.39.19.2.49.62.37 1.32-.06.33-.14.66-.22 1l-.2.85c-.09.35-.17.7-.24 1.06-.11.56 0 1.1.35 1.72a8.8 8.8 0 001.37 1.8c.94.95 1.78 1.83 2.5 2.87a7.93 7.93 0 011.3 2.85c.18.8.2 1.62.1 2.7-.1 1-.48 1.88-1.15 2.63-.27.3-.58.57-.84.8l-.2.16c-.22.2-.46.38-.7.55a.24.24 0 00-.02.18l.92 2.5.4 1.09c.48 1.34.97 2.68 1.43 4.03.2.55.25 1.12.28 1.66.05.74-.27 1.43-.86 1.84-.58.4-1.33.47-2 .17a2.5 2.5 0 01-1.03-.88c-.33-.49-.62-1-.9-1.51l-.05-.1-.5-.92c-.27-.5-.54-1.02-.84-1.5a3.55 3.55 0 00-2.1-1.58c-.35-.11-.7-.21-1-.25a2.76 2.76 0 00-1.85.4c-.04.03-.14.08-.15.34l-.06 1.12c-.03.68-.06 1.36-.12 2.04l-.01.28c-.04.55-.08 1.23-.43 1.9-.12.25-.27.5-.52.73-.36.33-.83.51-1.3.51zm-3.05-7.53zm9.4-23.9z"/>
  <path fill="url(#lg_d)" d="M14.25 27.46c-.5 0-.96-.32-1.1-.82a10.85 10.85 0 01-.38-4.59c.23-1.66.9-3.34 1.87-4.74 1.37-1.95 3.59-3.67 4.95-3.84.62-.08 1.01.14 1.24.33.65.57.46 1.36.37 1.74-.08.33-.16.66-.05 1.1.03.15.14.58.5.93.13.12.61.54 1.15.55l.2-.01c.33-.02.95-.06 1.46.46.3.32.63.9.37 1.91a3.68 3.68 0 01-2.16 2.42 3.78 3.78 0 01-2.73-.04c-.43-.13-.64-.18-.78-.12-.1.05-.49.3-.75 1.54a1.16 1.16 0 01-2.27-.5c.36-1.66 1.08-2.73 2.12-3.17.93-.4 1.76-.14 2.36.04.55.17.82.24 1.18.1.2-.08.38-.21.5-.36a4.26 4.26 0 01-3.52-4.02 9.8 9.8 0 00-2.24 2.26 8.52 8.52 0 00-1.18 7.33 1.16 1.16 0 01-1.11 1.5z"/>
  <path fill="url(#lg_e)" d="M24 47.16a23 23 0 01-16.38-6.79A23 23 0 01.84 24 23 23 0 017.63 7.62a1.16 1.16 0 011.63 1.64A20.7 20.7 0 003.16 24a20.7 20.7 0 006.1 14.74A20.7 20.7 0 0024 44.84a20.7 20.7 0 0014.74-6.1 1.16 1.16 0 111.63 1.64A23 23 0 0124 47.16z"/>
  <path fill="#e90600" d="M39.56 40.71c-.3 0-.6-.1-.82-.34a1.16 1.16 0 010-1.63A20.7 20.7 0 0044.84 24a20.7 20.7 0 00-6.1-14.74A20.7 20.7 0 0024 3.16a20.7 20.7 0 00-14.74 6.1 1.16 1.16 0 01-1.63-1.64A23 23 0 0124 .84a23 23 0 0116.38 6.79A23 23 0 0147.16 24a23 23 0 01-6.79 16.38c-.22.22-.52.33-.81.33z"/>
</svg>
