<svg width="235" height="235" viewBox="0 0 235 235" fill="none" xmlns="http://www.w3.org/2000/svg">
<path d="M108.396 1.68253C104.296 2.98253 98.2956 8.18252 92.8956 15.3825C84.2956 26.7825 76.0956 30.6825 64.3956 28.6825C46.0956 25.6825 35.1956 29.4825 29.3956 40.9825C26.5956 46.6825 26.0956 54.8825 27.9956 65.0825C29.8956 75.5825 25.7956 85.5825 16.8956 91.9825C3.39564 101.583 -0.704361 108.483 0.0956394 119.583C0.695639 128.083 3.39564 132.183 13.1956 140.183C26.7956 151.183 29.8956 157.283 27.9956 169.683C24.8956 189.483 28.6956 199.583 41.6956 205.683C45.9956 207.783 47.1956 207.883 55.8956 207.083C79.6956 205.083 81.1956 205.683 96.0956 223.583C102.296 231.183 107.196 233.883 114.996 234.483C125.296 235.283 131.596 231.883 139.496 221.383C150.596 206.583 154.296 205.183 177.096 207.183C188.696 208.183 193.396 206.783 199.396 200.883C206.596 193.783 208.496 184.683 205.796 170.283C203.696 158.783 207.796 149.783 218.996 141.683C230.096 133.583 234.296 126.983 234.196 117.683C234.096 108.083 229.596 100.883 219.596 93.7825C207.496 85.2825 203.996 77.3825 205.996 63.5825C208.396 46.7825 205.296 37.2825 195.496 31.1825C191.496 28.7825 189.296 28.1825 183.496 27.8825C179.596 27.6825 173.896 27.8825 170.896 28.3825C157.296 30.4825 149.296 26.8825 140.396 14.7825C137.696 10.9825 133.296 6.48253 130.696 4.68253C126.596 1.78253 124.8 0.319882 118.5 0.0198822C114.5 -0.180118 109.996 1.18253 108.396 1.68253ZM134.696 56.3825C134.996 58.6825 129.896 75.8825 123.296 94.9825C121.396 100.483 119.896 105.083 119.896 105.283C119.896 105.483 126.996 105.683 135.796 105.683C153.596 105.683 155.296 106.283 152.996 111.483C150.296 117.183 113.096 175.583 109.596 179.383C107.096 182.183 105.296 182.283 103.996 179.883C102.996 177.883 104.696 170.283 112.996 140.783C115.196 132.983 116.896 126.283 116.596 126.083C116.396 125.883 107.996 125.383 97.7956 124.983C80.2956 124.183 79.3956 124.083 79.0956 122.183C78.7956 119.983 95.4956 97.2825 116.696 70.9825C123.096 62.9825 128.896 55.7825 129.396 55.0825C130.896 52.8825 134.296 53.7825 134.696 56.3825Z" fill="#252525"/>
</svg>
