<svg id="图层_1" data-name="图层 1" xmlns="http://www.w3.org/2000/svg" viewBox="0 0 800 600"><title>画板 1</title><path d="M336.82,292l20-12v8h29.57l-6-12h-3.54v4h-16v-16h16v4h8.49l10,20h6.22a12,12,0,1,1,.51,9.25L388.9,316h-9.08a8,8,0,1,1,0-8h5.08l8.35-12h-36.4v8Zm72.12,0a4,4,0,1,0,4-4A4,4,0,0,0,408.94,292Z"/><path d="M495.75,315.2h125.5V228.92H495.75Zm70.59,15.69v15.69h31.38v15.69H519.28V346.58h31.38V330.89H487.84a7.83,7.83,0,0,1-7.78-7.87V221.13a7.9,7.9,0,0,1,7.78-7.9H629.16a7.83,7.83,0,0,1,7.78,7.9V323a7.9,7.9,0,0,1-7.78,7.9Z"/><path d="M192.4,231.9V351.1h74.5V231.9ZM185,217h89.4a7.46,7.46,0,0,1,7.45,7.45v134.1a7.46,7.46,0,0,1-7.45,7.45H185a7.46,7.46,0,0,1-7.45-7.45V224.45A7.46,7.46,0,0,1,185,217Zm44.7,111.75a7.45,7.45,0,1,1-7.45,7.45A7.46,7.46,0,0,1,229.65,328.75Z"/></svg>