<svg id="图层_1" data-name="图层 1" xmlns="http://www.w3.org/2000/svg" viewBox="0 0 800 800"><defs><style>.cls-1{fill:#41cd52;}.cls-2,.cls-3{fill:#fff;}.cls-2{opacity:0.44;}.cls-3{opacity:0.54;}</style></defs><title>画板 1</title><circle class="cls-1" cx="399.5" cy="399.5" r="334.5"/><polygon class="cls-2" points="472 192 232 192 112 399.85 232 607.69 472 607.69 592 399.85 472 192"/><polygon class="cls-2" points="567 192 327 192 207 399.85 327 607.69 567 607.69 687 399.85 567 192"/><polyline class="cls-3" points="472 608 567 608 472 192 327 192 232 608 327 608 363 449 436 449 472 608"/><path class="cls-1" d="M405.24,314.82,400,291,375,400h49Z"/><path class="cls-3" d="M405.24,314.82,400,291,375,400h49Z"/></svg>