<svg xmlns="http://www.w3.org/2000/svg" fill="none" viewBox="0 0 48 48"><path fill-opacity=".01" fill="#fff" d="M0 0h48v48H0z"/><path stroke-linejoin="round" stroke-linecap="round" stroke-width="3" stroke="#333" d="M32 44s0-3.864.002-3.872a17.964 17.964 0 0 0 4.726-3.4A17.943 17.943 0 0 0 42 24H6c0 4.97 2.015 9.47 5.272 12.728a18.085 18.085 0 0 0 4.741 3.407L16 44h16ZM24 18.008V8M36 18.008V12M12 18.008V12M40 8a4 4 0 0 0-4 4M28 4a4 4 0 0 0-4 4M16 8a4 4 0 0 0-4 4" data-follow-stroke="#333"/></svg>